<svg id="Layer_5" enable-background="new 0 0 64 64" height="512" viewBox="0 0 64 64" width="512" xmlns="http://www.w3.org/2000/svg"><g><g><g><path d="m2 26h58v22h-58z" fill="#dfb28b"/></g><g><path d="m20 58v4h-14v-4c0-1.1.9-2 2-2h.04 9.92.04c1.1 0 2 .9 2 2z" fill="#aab2bd"/></g><g><path d="m20 48v4h-3c-.14-.19-.29-.37-.46-.54-.91-.9-2.16-1.46-3.54-1.46s-2.63.56-3.54 1.46c-.17.17-.32.35-.46.54h-3v-4c0-1.1.9-2 2-2h.04 9.92.04c1.1 0 2 .9 2 2z" fill="#aab2bd"/></g><g><path d="m38 48v4h-3c-.14-.19-.29-.37-.46-.54-.91-.9-2.16-1.46-3.54-1.46s-2.63.56-3.54 1.46c-.17.17-.32.35-.46.54h-3v-4c0-1.1.9-2 2-2h1.04 8.96c.07 0 .14 0 .2.01 1.01.1 1.8.96 1.8 1.99z" fill="#aab2bd"/></g><g><path d="m38 58v4h-14v-4c0-1.1.9-2 2-2h.04 9.92.04c1.1 0 2 .9 2 2z" fill="#aab2bd"/></g><g><path d="m56 58v4h-14v-4c0-1.1.9-2 2-2h.04 9.92.04c1.1 0 2 .9 2 2z" fill="#aab2bd"/></g><g><path d="m56 48v4h-3c-.14-.19-.29-.37-.46-.54-.91-.9-2.16-1.46-3.54-1.46s-2.63.56-3.54 1.46c-.17.17-.32.35-.46.54h-3v-4c0-1.1.9-2 2-2h1.04 8.96c.07 0 .14 0 .2.01 1.01.1 1.8.96 1.8 1.99z" fill="#aab2bd"/></g><g><path d="m54 55c0 .33-.01.67-.04 1h-9.92c-.03-.33-.04-.67-.04-1 0-1.13.37-2.17 1-3 .14-.19.29-.37.46-.54.91-.9 2.16-1.46 3.54-1.46s2.63.56 3.54 1.46c.17.17.32.35.46.54.63.83 1 1.87 1 3z" fill="#fcd770"/></g><g><path d="m36 55c0 .33-.01.67-.04 1h-9.92c-.03-.33-.04-.67-.04-1 0-1.13.37-2.17 1-3 .14-.19.29-.37.46-.54.91-.9 2.16-1.46 3.54-1.46s2.63.56 3.54 1.46c.17.17.32.35.46.54.63.83 1 1.87 1 3z" fill="#fcd770"/></g><g><path d="m18 55c0 .33-.01.67-.04 1h-9.92c-.03-.33-.04-.67-.04-1 0-1.13.37-2.17 1-3 .14-.19.29-.37.46-.54.91-.9 2.16-1.46 3.54-1.46s2.63.56 3.54 1.46c.17.17.32.35.46.54.63.83 1 1.87 1 3z" fill="#fcd770"/></g><g><path d="m17.59 43c.26.61.41 1.29.41 2 0 .34-.01.67-.04 1h-9.92c-.03-.33-.04-.66-.04-1 0-1.38.56-2.63 1.46-3.54.91-.9 2.16-1.46 3.54-1.46s2.63.56 3.54 1.46c.44.44.79.96 1.05 1.54z" fill="#fcd770"/></g><g><path d="m36 45c0 .34-.01.67-.04 1l-.76.01c-.06-.01-.13-.01-.2-.01h-8.96c-.03-.33-.04-.66-.04-1 0-1.38.56-2.63 1.46-3.54.91-.9 2.16-1.46 3.54-1.46s2.63.56 3.54 1.46c.9.91 1.46 2.16 1.46 3.54z" fill="#fcd770"/></g><g><path d="m54 45c0 .34-.01.67-.04 1l-.76.01c-.06-.01-.13-.01-.2-.01h-8.96c-.03-.33-.04-.66-.04-1 0-1.38.56-2.63 1.46-3.54.91-.9 2.16-1.46 3.54-1.46s2.63.56 3.54 1.46c.9.91 1.46 2.16 1.46 3.54z" fill="#fcd770"/></g><g><path d="m32 2h30v28h-30z" fill="#e6e9ed"/></g><g><path d="m58 10v8h-14v-4h6v-4z" fill="#b4dd7f"/></g><g><path d="m50 10v4h-6-9.83l-.04-.05 3.87-3.14c.63-.51 1-1.28 1-2.1 0-1.5-1.21-2.71-2.71-2.71h13.71z" fill="#fcd770"/></g><g><path d="m13 29v1h-2c-1.66 0-3-1.34-3-3v-1-6c0-3.31 2.69-6 6-6h4 1 3.9c1.36 0 2.68-.46 3.74-1.31l5.36-4.29 2.26-1.81c.48-.38 1.08-.59 1.69-.59h.05.29c1.5 0 2.71 1.21 2.71 2.71 0 .82-.37 1.59-1 2.1l-3.87 3.14-2.13 1.74-8.26 6.71c-.47.38-.74.95-.74 1.55v2.05 3h-5z" fill="#4fc1e9"/></g><g><path d="m23 29v11.5c0 1.38-1.12 2.5-2.5 2.5-.17 0-.34-.02-.5-.05-.49-.1-.93-.34-1.27-.68-.45-.45-.73-1.08-.73-1.77v-11.5z" fill="#969faa"/></g><g><circle cx="18" cy="8" fill="#f0d0b4" r="6"/></g><g><path d="m20 42.95v.05h-2.41c-.26-.58-.61-1.1-1.05-1.54-.91-.9-2.16-1.46-3.54-1.46v-10-1h5v11.5c0 .69.28 1.32.73 1.77.34.34.78.58 1.27.68z" fill="#969faa"/></g></g><g><path d="m63 1h-32v6.919l-4.981 3.985c-.884.707-1.993 1.096-3.123 1.096h-.006c1.3-1.272 2.11-3.042 2.11-5 0-3.859-3.14-7-7-7s-7 3.141-7 7c0 1.987.836 3.779 2.17 5.054-3.469.412-6.17 3.368-6.17 6.946v5h-6v24h4v3.003h2v-4c0-.552.449-1 1-1h10c.551 0 1 .448 1 1v4h2v-4c0-1.305-.842-2.406-2.007-2.818.001-.061.007-.121.007-.182 0-.503-.069-.988-.186-1.455.502.279 1.071.452 1.686.452 1.93 0 3.5-1.569 3.5-3.499v-13.501h7v4h11.826l-4.585 5.35 1.519 1.301 5.7-6.65h.54v6h2v-6h.54l5.7 6.65 1.519-1.301-4.585-5.35h7.826v16h-2.185c-.303-.848-.972-1.515-1.822-1.815.001-.061.007-.121.007-.182 0-3.309-2.691-6-6-6s-6 2.691-6 6c0 .061.006.121.007.182-1.165.412-2.007 1.513-2.007 2.818v4h2v-4c0-.552.449-1 1-1h10c.551 0 1 .448 1 1v4h2v-3.003h4v-18h2zm-14 40.003c2.206 0 4 1.794 4 4h-8c0-2.206 1.794-4 4-4zm-36-33.003c0-2.757 2.243-5 5-5s5 2.243 5 5-2.243 5-5 5-5-2.243-5-5zm-4 12c0-2.757 2.243-5 5-5h8.896c1.583 0 3.136-.545 4.373-1.533l7.615-6.093c.3-.241.679-.374 1.067-.374h.049.29c.943 0 1.71.768 1.71 1.71 0 .518-.23 1.001-.631 1.327l-14.261 11.586c-.704.573-1.108 1.422-1.108 2.329v3.048h-8v-5h-2v7h-1c-1.103 0-2-.897-2-2zm42-5v-4h6v6h-12v-2zm-2-2h-12.106l1.736-1.41c.87-.708 1.37-1.758 1.37-2.88 0-.62-.167-1.196-.437-1.71h9.437zm-36 28.003c2.206 0 4 1.794 4 4h-8c0-2.206 1.794-4 4-4zm1-1.91v-10.093h3v11.5c0 .016.005.031.005.048-.828-.745-1.861-1.262-3.005-1.455zm-8.815 7.907h-2.185v-20h4c0 2.206 1.794 4 4 4h1v8.093c-2.833.478-5 2.942-5 5.91 0 .061.006.121.007.182-.849.3-1.518.967-1.822 1.815zm15.315-5c-.827 0-1.5-.673-1.5-1.5v-11.5h3l-.001 11.501c0 .826-.673 1.499-1.499 1.499zm3.5-17v-1.048c0-.303.135-.586.369-.776l6.631-5.387v7.211zm37 4h-28v-12.836l1.432-1.164h8.568v4h16v-10h-8v-4h-14.71-.29-.049c-.84 0-1.663.289-2.317.813l-.634.506v-3.319h28z"/><path d="m18.993 55.182c.001-.061.007-.121.007-.182 0-3.309-2.691-6-6-6s-6 2.691-6 6c0 .061.006.121.007.182-1.165.412-2.007 1.513-2.007 2.818v5h16v-5c0-1.305-.842-2.406-2.007-2.818zm-5.993-4.182c2.206 0 4 1.794 4 4h-8c0-2.206 1.794-4 4-4zm6 10h-12v-3c0-.552.449-1 1-1h10c.551 0 1 .448 1 1z"/><path d="m36.993 55.182c.001-.061.007-.121.007-.182 0-3.309-2.691-6-6-6s-6 2.691-6 6c0 .061.006.121.007.182-1.165.412-2.007 1.513-2.007 2.818v5h16v-5c0-1.305-.842-2.406-2.007-2.818zm-5.993-4.182c2.206 0 4 1.794 4 4h-8c0-2.206 1.794-4 4-4zm6 10h-12v-3c0-.552.449-1 1-1h10c.551 0 1 .448 1 1z"/><path d="m54.993 55.182c.001-.061.007-.121.007-.182 0-3.309-2.691-6-6-6s-6 2.691-6 6c0 .061.006.121.007.182-1.165.412-2.007 1.513-2.007 2.818v5h16v-5c0-1.305-.842-2.406-2.007-2.818zm-5.993-4.182c2.206 0 4 1.794 4 4h-8c0-2.206 1.794-4 4-4zm6 10h-12v-3c0-.552.449-1 1-1h10c.551 0 1 .448 1 1z"/><path d="m36.993 45.185c.001-.061.007-.121.007-.182 0-3.309-2.691-6-6-6s-6 2.691-6 6c0 .061.006.121.007.182-1.165.412-2.007 1.513-2.007 2.818v4h2v-4c0-.552.449-1 1-1h10c.551 0 1 .448 1 1v4h2v-4c0-1.305-.842-2.406-2.007-2.818zm-5.993-4.182c2.206 0 4 1.794 4 4h-8c0-2.206 1.794-4 4-4z"/><path d="m35 21h2v2h-2z"/><path d="m39 21h20v2h-20z"/><path d="m35 25h24v2h-24z"/></g></g></svg>